HIERARCHY
ROOT Hips
{
	OFFSET -0.001795 -0.223333 0.028219
	CHANNELS 6 Xposition Yposition Zposition Zrotation Yrotation Xrotation 
	JOINT LeftUpLeg
	{
		OFFSET 0.069520 -0.091406 -0.006815
		CHANNELS 3 Zrotation Yrotation Xrotation
		JOINT LeftLeg
		{
			OFFSET 0.034277 -0.375199 -0.004496
			CHANNELS 3 Zrotation Yrotation Xrotation
			JOINT LeftFoot
			{
				OFFSET -0.013596 -0.397961 -0.043693
				CHANNELS 3 Zrotation Yrotation Xrotation
				JOINT LeftToe
				{
					OFFSET 0.026358 -0.055791 0.119288
					CHANNELS 3 Zrotation Yrotation Xrotation
					End Site
					{
						OFFSET 0.000000 0.000000 0.000000
					}
				}
			}
		}
	}
	JOINT RightUpLeg
	{
		OFFSET -0.067670 -0.090522 -0.004320
		CHANNELS 3 Zrotation Yrotation Xrotation
		JOINT RightLeg
		{
			OFFSET -0.038290 -0.382569 -0.008850
			CHANNELS 3 Zrotation Yrotation Xrotation
			JOINT RightFoot
			{
				OFFSET 0.015774 -0.398415 -0.042312
				CHANNELS 3 Zrotation Yrotation Xrotation
				JOINT RightToe
				{
					OFFSET -0.025372 -0.048144 0.123348
					CHANNELS 3 Zrotation Yrotation Xrotation
					End Site
					{
						OFFSET 0.000000 0.000000 0.000000
					}
				}
			}
		}
	}
	JOINT Spine
	{
		OFFSET -0.002533 0.108963 -0.026696
		CHANNELS 3 Zrotation Yrotation Xrotation
		JOINT Spine1
		{
			OFFSET 0.005487 0.135180 0.001092
			CHANNELS 3 Zrotation Yrotation Xrotation
			JOINT Spine2
			{
				OFFSET 0.001457 0.052922 0.025425
				CHANNELS 3 Zrotation Yrotation Xrotation
				JOINT Neck
				{
					OFFSET -0.002778 0.213870 -0.042857
					CHANNELS 3 Zrotation Yrotation Xrotation
					JOINT Head
					{
						OFFSET 0.005152 0.064970 0.051349
						CHANNELS 3 Zrotation Yrotation Xrotation
						End Site
						{
							OFFSET 0.000000 0.000000 0.000000
						}
					}
				}
				JOINT LeftShoulder
				{
					OFFSET 0.078845 0.121749 -0.034090
					CHANNELS 3 Zrotation Yrotation Xrotation
					JOINT LeftArm
					{
						OFFSET 0.090977 0.030469 -0.008868
						CHANNELS 3 Zrotation Yrotation Xrotation
						JOINT LeftForeArm
						{
							OFFSET 0.259612 -0.012772 -0.027456
							CHANNELS 3 Zrotation Yrotation Xrotation
							JOINT LeftHand
							{
								OFFSET 0.249234 0.008986 -0.001171
								CHANNELS 3 Zrotation Yrotation Xrotation
								End Site
								{
									OFFSET 0.000000 0.000000 0.000000
								}
							}
						}
					}
				}
				JOINT RightShoulder
				{
					OFFSET -0.081759 0.118833 -0.038615
					CHANNELS 3 Zrotation Yrotation Xrotation
					JOINT RightArm
					{
						OFFSET -0.096012 0.032551 -0.009143
						CHANNELS 3 Zrotation Yrotation Xrotation
						JOINT RightForeArm
						{
							OFFSET -0.253742 -0.013329 -0.021401
							CHANNELS 3 Zrotation Yrotation Xrotation
							JOINT RightHand
							{
								OFFSET -0.255298 0.007772 -0.005559
								CHANNELS 3 Zrotation Yrotation Xrotation
								End Site
								{
									OFFSET 0.000000 0.000000 0.000000
								}
							}
						}
					}
				}
			}
		}
	}
}
MOTION
Frames: 7
Frame Time: 0.050000
0.000000 0.945669 0.000000 -1.081051 -4.006630 0.632043 -1.210426 0.420497 3.868211 -0.674446 0.315592 -7.956598 -2.795770 -1.916023 8.539334 0.000000 0.000000 0.000000 1.059949 -0.194862 1.523708 -1.711059 -0.081443 -4.671740 4.455035 4.301736 9.864198 0.000000 0.000000 0.000000 5.460799 0.114612 -1.793939 -2.338758 1.136346 1.030170 -2.701075 4.369922 4.393618 7.781848 -3.552520 -14.493927 0.000000 0.000000 0.000000 -27.452492 -4.696887 -0.919201 -46.045820 -2.422610 -4.205753 -2.868227 -23.334526 1.354272 0.000000 0.000000 0.000000 24.630593 -1.385851 -2.284231 53.486431 1.097708 -4.917894 3.207816 25.102241 1.653374 0.000000 0.000000 0.000000 
0.000155 0.944529 0.000519 -1.480806 -5.009129 1.161870 -0.043443 0.390116 4.015045 -2.157138 0.416301 -8.976635 -2.417908 -1.311277 8.581830 0.000000 0.000000 0.000000 1.046965 -0.088082 0.486022 -1.030971 -0.086781 -3.894674 4.797819 5.087395 9.540403 0.000000 0.000000 0.000000 6.018384 0.178804 -2.470069 -2.249392 1.109068 1.876849 -4.024432 5.822558 3.554944 9.642015 -4.434275 -15.281607 0.000000 0.000000 0.000000 -27.484836 -5.203192 -1.137271 -45.719554 -1.702320 -4.211592 -2.400460 -24.528352 1.251221 0.000000 0.000000 0.000000 24.910055 -2.520473 -2.611379 54.332652 0.255715 -5.377797 3.863227 26.286330 1.956120 0.000000 0.000000 0.000000 
0.000206 0.943993 0.000917 -1.385557 -5.100153 1.383642 0.078585 0.330015 3.452487 -2.590757 0.424510 -8.363318 -2.299296 -1.233164 8.268746 0.000000 0.000000 0.000000 1.146245 -0.077211 0.338085 -1.417414 -0.070473 -4.050360 4.776251 5.147838 9.350467 0.000000 0.000000 0.000000 6.356633 0.186703 -2.542588 -2.911979 1.417975 0.875337 -3.905971 5.290426 4.112603 8.410903 -3.805929 -14.934609 0.000000 0.000000 0.000000 -26.223699 -5.073035 -0.791708 -46.432763 -2.112075 -4.293166 -2.206012 -23.210093 1.184185 0.000000 0.000000 0.000000 24.976750 -1.513833 -2.205492 53.719675 -0.460351 -5.629933 5.285166 25.965317 2.185584 0.000000 0.000000 0.000000 
0.000237 0.943897 0.001550 -1.451985 -5.258762 1.313216 0.511094 0.374163 4.079015 -3.265960 0.469215 -9.219251 -2.366480 -1.232563 8.604990 0.000000 0.000000 0.000000 0.795432 -0.062273 0.321550 -0.683675 -0.105309 -3.817466 4.856003 5.307979 9.337021 0.000000 0.000000 0.000000 6.135035 0.209401 -2.783276 -2.521042 1.232734 1.173834 -4.161658 5.573740 3.813853 8.746621 -3.977686 -14.950878 0.000000 0.000000 0.000000 -26.629089 -4.748080 -1.159963 -46.361710 -1.796401 -4.333184 -1.856679 -23.322697 1.100504 0.000000 0.000000 0.000000 24.970864 -1.858631 -2.327662 53.526609 -0.723563 -5.721845 5.974380 26.390821 2.393764 0.000000 0.000000 0.000000 
0.000253 0.944291 0.002283 -1.485434 -5.391208 1.249920 0.459964 0.356881 3.867403 -3.128318 0.456532 -8.611050 -2.245894 -1.096580 8.432569 0.000000 0.000000 0.000000 0.687178 -0.085447 0.590670 -0.452112 -0.131479 -4.110262 5.002004 5.428640 9.597835 0.000000 0.000000 0.000000 5.955963 0.195468 -2.652887 -2.540415 1.253847 1.690452 -4.151325 5.502437 3.074886 8.541784 -4.018640 -13.953094 0.000000 0.000000 0.000000 -26.585486 -4.768673 -1.140873 -46.243615 -1.643677 -4.323309 -2.137438 -22.954883 1.136205 0.000000 0.000000 0.000000 24.718894 -1.815736 -2.339852 53.451442 -0.934759 -5.720397 6.536387 26.147037 2.471215 0.000000 0.000000 0.000000 
0.000279 0.944335 0.003395 -1.582180 -5.347804 1.161287 0.563215 0.389548 4.256452 -3.129648 0.461220 -8.983576 -2.306514 -1.166608 8.516878 0.000000 0.000000 0.000000 0.591528 -0.097805 0.754316 -0.101575 -0.150804 -4.071862 5.009125 5.426149 9.637848 0.000000 0.000000 0.000000 5.848633 0.195666 -2.656808 -2.380878 1.170678 1.519353 -4.119894 5.147693 3.298855 8.158844 -3.868752 -13.636375 0.000000 0.000000 0.000000 -26.799695 -4.425220 -1.238174 -46.187259 -1.619734 -4.379991 -2.233414 -23.027685 1.176314 0.000000 0.000000 0.000000 24.622985 -1.571174 -2.287172 53.322881 -1.043207 -5.749011 6.811000 26.095901 2.506691 0.000000 0.000000 0.000000 
0.000289 0.944367 0.004694 -1.659717 -5.396076 1.035502 0.632471 0.399319 4.385577 -3.117789 0.458530 -8.789791 -2.258432 -1.139999 8.372559 0.000000 0.000000 0.000000 0.607439 -0.117641 0.948131 -0.002377 -0.154420 -4.010410 5.039209 5.490266 9.626139 0.000000 0.000000 0.000000 5.670941 0.182628 -2.523225 -2.400101 1.178531 1.403780 -4.088085 5.023606 3.254877 8.191956 -3.917044 -13.555330 0.000000 0.000000 0.000000 -27.102638 -4.221623 -1.343390 -45.962377 -1.413642 -4.439643 -2.342990 -22.936994 1.200052 0.000000 0.000000 0.000000 24.428024 -1.661226 -2.379145 53.355550 -1.382252 -5.876827 7.092435 26.419883 2.594602 0.000000 0.000000 0.000000 
